<?xml version="1.0"?>
<svg xmlns="http://www.w3.org/2000/svg" xmlns:xlink="http://www.w3.org/1999/xlink" xmlns:svgjs="http://svgjs.com/svgjs" version="1.1" width="512" height="512" x="0" y="0" viewBox="0 0 64 64" style="enable-background:new 0 0 512 512" xml:space="preserve" class=""><g><g xmlns="http://www.w3.org/2000/svg" id="Battery_Accumulator" data-name="Battery Accumulator"><rect y="16" width="64" height="8" rx="1" ry="1" fill="#c1c1c1" data-original="#000000" style="" class=""/><path d="M39.89,10.55A.9771.9771,0,0,0,39,10H25a.9771.9771,0,0,0-.89.55L22.39,14H41.62Z" fill="#c1c1c1" data-original="#000000" style="" class=""/><path d="M19,10a1.0029,1.0029,0,0,0-1-1H8a1.0029,1.0029,0,0,0-1,1v4H19Z" fill="#c1c1c1" data-original="#000000" style="" class=""/><path d="M17,5a1.0029,1.0029,0,0,0-1-1H10A1.0029,1.0029,0,0,0,9,5V7h8Z" fill="#c1c1c1" data-original="#000000" style="" class=""/><path d="M55,5a1.0029,1.0029,0,0,0-1-1H48a1.0029,1.0029,0,0,0-1,1V7h8Z" fill="#c1c1c1" data-original="#000000" style="" class=""/><path d="M57,10a1.0029,1.0029,0,0,0-1-1H46a1.0029,1.0029,0,0,0-1,1v4H57Z" fill="#c1c1c1" data-original="#000000" style="" class=""/><path d="M4,59a1.0029,1.0029,0,0,0,1,1H59a1.0029,1.0029,0,0,0,1-1V26H4ZM49,31h1V30a1,1,0,0,1,2,0v1h1a1,1,0,0,1,0,2H52v1a1,1,0,0,1-2,0V33H49a1,1,0,0,1,0-2ZM21.27,44.32l12-13A1,1,0,0,1,35,32v8h7a.996.996,0,0,1,.73,1.68l-12,13A.9855.9855,0,0,1,30,55a.8888.8888,0,0,1-.36-.07A.9943.9943,0,0,1,29,54V46H22a.996.996,0,0,1-.73-1.68ZM11,31h4a1,1,0,0,1,0,2H11a1,1,0,0,1,0-2Z" fill="#c1c1c1" data-original="#000000" style="" class=""/><path d="M31,45v6.44L39.72,42H34a1.0029,1.0029,0,0,1-1-1V34.56L24.28,44H30A1.0029,1.0029,0,0,1,31,45Z" fill="#c1c1c1" data-original="#000000" style="" class=""/></g></g></svg>
